<?xml version="1.0" encoding="UTF-8"?>
<svg xmlns="http://www.w3.org/2000/svg" version="1.1" width="512px" height="512px" style="shape-rendering:geometricPrecision; text-rendering:geometricPrecision; image-rendering:optimizeQuality; fill-rule:evenodd; clip-rule:evenodd" xmlns:xlink="http://www.w3.org/1999/xlink">
<g><path style="opacity:0.976" fill="#666666" d="M 511.5,245.5 C 511.5,253.833 511.5,262.167 511.5,270.5C 507.367,294.76 495.534,314.426 476,329.5C 478.492,367.696 463.325,396.196 430.5,415C 421.92,419.05 412.92,421.717 403.5,423C 388.918,456.636 363.251,474.469 326.5,476.5C 295.687,474.985 272.021,461.318 255.5,435.5C 233.765,468.256 203.431,481.089 164.5,474C 137.31,466.143 118.31,449.143 107.5,423C 69.9756,416.808 46.4756,395.308 37,358.5C 35.8422,348.876 35.1755,339.209 35,329.5C 15.466,314.426 3.63264,294.76 -0.5,270.5C -0.5,262.167 -0.5,253.833 -0.5,245.5C 3.72744,220.719 15.8941,200.719 36,185.5C 32.0903,132.634 55.9236,100.301 107.5,88.5C 121.475,54.382 146.975,36.382 184,34.5C 215.073,35.7779 238.906,49.4445 255.5,75.5C 281.08,38.3619 315.413,26.8619 358.5,41C 379.843,50.8423 394.843,66.6757 403.5,88.5C 455.069,100.281 478.903,132.614 475,185.5C 495.092,200.685 507.259,220.685 511.5,245.5 Z M 319.5,55.5 C 346.441,54.2996 366.775,65.133 380.5,88C 345.255,92.4112 325.589,112.245 321.5,147.5C 323.281,156.559 328.614,159.726 337.5,157C 339.378,155.457 340.878,153.624 342,151.5C 343.24,127.933 355.406,114.1 378.5,110C 403.146,106.436 423.979,113.603 441,131.5C 447.483,139.801 451.816,149.134 454,159.5C 454.632,170.905 454.299,182.239 453,193.5C 453.667,194.833 454.333,196.167 455,197.5C 487.3,218.123 497.633,246.79 486,283.5C 481.481,294.363 474.648,303.529 465.5,311C 458.004,316.249 450.337,321.249 442.5,326C 427.697,332.17 413.031,331.836 398.5,325C 392.236,321.73 386.236,318.064 380.5,314C 371.162,313.672 366.995,318.172 368,327.5C 368.792,329.587 369.959,331.421 371.5,333C 397.013,352.627 424.513,356.127 454,343.5C 453.658,363.351 445.491,379.185 429.5,391C 417.276,398.723 403.942,403.057 389.5,404C 387.951,405.214 386.785,406.714 386,408.5C 376.943,437.716 357.11,453.383 326.5,455.5C 297.099,453.382 277.599,438.382 268,410.5C 266.97,406.227 266.303,401.894 266,397.5C 265.021,299.813 265.355,202.146 267,104.5C 274.461,77.1998 291.961,60.8664 319.5,55.5 Z"/></g>
<g><path style="opacity:1" fill="#e5f6da" d="M 172.5,55.5 C 205.442,52.2114 228.609,65.5447 242,95.5C 243.313,99.4204 244.313,103.42 245,107.5C 245.667,206.167 245.667,304.833 245,403.5C 237.765,436.571 217.265,453.905 183.5,455.5C 158.696,454.687 140.529,443.354 129,421.5C 127.136,416.909 125.47,412.243 124,407.5C 122.833,406.333 121.667,405.167 120.5,404C 98.3913,403.529 80.558,394.695 67,377.5C 59.7014,366.939 56.0347,355.273 56,342.5C 85.2992,355.646 112.799,352.479 138.5,333C 142.259,329.257 143.426,324.757 142,319.5C 138.901,315.034 134.735,313.534 129.5,315C 108.507,332.383 85.8403,335.049 61.5,323C 56.4415,318.943 51.1082,315.276 45.5,312C 23.0235,292.235 15.1901,267.735 22,238.5C 27.7062,220.803 38.5395,207.303 54.5,198C 56.0412,196.421 57.2078,194.587 58,192.5C 49.7915,160.451 59.2915,135.284 86.5,117C 109.419,105.461 132.086,105.795 154.5,118C 164.127,127.426 169.293,138.926 170,152.5C 175.369,158.698 181.036,159.032 187,153.5C 189.067,133.451 182.567,116.618 167.5,103C 156.11,94.924 143.444,90.0907 129.5,88.5C 138.941,71.051 153.275,60.051 172.5,55.5 Z"/></g>
<g><path style="opacity:0.959" fill="#656565" d="M 356.5,179.5 C 363.694,178.175 368.527,180.842 371,187.5C 368.259,196.083 366.092,204.917 364.5,214C 368.361,240.752 383.695,252.918 410.5,250.5C 420.906,252.874 423.739,258.874 419,268.5C 399.684,274.975 381.85,271.975 365.5,259.5C 349.304,279.51 328.637,286.677 303.5,281C 297.262,275.702 296.928,270.036 302.5,264C 307.23,261.364 312.23,260.864 317.5,262.5C 332.725,262.057 344.059,255.223 351.5,242C 341.128,223.318 340.962,204.485 351,185.5C 352.36,182.977 354.193,180.977 356.5,179.5 Z"/></g>
<g><path style="opacity:1" fill="#666766" d="M 147.5,179.5 C 151.587,179.294 155.087,180.627 158,183.5C 168.796,202.716 169.296,222.216 159.5,242C 163.942,251.106 170.942,257.44 180.5,261C 189.472,263.223 198.472,264.223 207.5,264C 213.032,269.964 212.698,275.631 206.5,281C 181.551,285.852 161.217,278.352 145.5,258.5C 129.895,270.788 112.562,274.288 93.5,269C 89.284,263.391 89.6173,258.058 94.5,253C 98.8997,251.273 103.4,251.106 108,252.5C 135.627,248.907 148.294,233.24 146,205.5C 144.008,200.358 142.175,195.191 140.5,190C 140.736,185.01 143.069,181.51 147.5,179.5 Z"/></g>
<g><path style="opacity:0.951" fill="#656565" d="M 339.5,336.5 C 351.681,337.819 355.181,344.152 350,355.5C 335.885,381.641 314.052,392.474 284.5,388C 276.936,383.08 275.936,377.08 281.5,370C 283.725,368.869 286.058,368.036 288.5,367.5C 310.213,370.562 325.046,361.895 333,341.5C 334.805,339.174 336.972,337.508 339.5,336.5 Z"/></g>
<g><path style="opacity:1" fill="#676767" d="M 207.5,338.5 C 215.452,336.968 220.119,340.135 221.5,348C 210.072,378.393 188.072,392.06 155.5,389C 145.798,383.513 145.131,377.18 153.5,370C 177.377,373.653 193.877,364.487 203,342.5C 204.397,340.93 205.897,339.596 207.5,338.5 Z"/></g>
</svg>
